<svg width="167px" height="111px" viewBox="0 0 167 111" style="display: block; letter-spacing: normal; word-spacing: normal; width: 167px; height: 111px;" xmlns="http://www.w3.org/2000/svg" xmlns:xlink="http://www.w3.org/1999/xlink"><rect x="0" y="0" width="167" height="111" fill="white" transform="matrix(1, 0, 0, 1, 0, 0)"/><g clip-path="url(#mainClip461)"><g class="gojs-diagram" transform="matrix(1, 0, 0, 1, 1, 1)"><g transform="matrix(1, 0, 0, 1, 0, 0)" data-class-name="Node" data-key="1"><path stroke="none" fill="lightblue" d="M 5,0 L 61.27284749830794,0 C 63.51142374915397,0 66.27284749830794,2.761423749153968 66.27284749830794,5 L 66.27284749830794,33.769513834367515 C 66.27284749830794,36.008090085213546 63.51142374915397,38.769513834367515 61.27284749830794,38.769513834367515 L 5,38.769513834367515 C 2.761423749153968,38.769513834367515 0,36.008090085213546 0,33.769513834367515 L 0,5 C 0,2.761423749153968 2.761423749153968,0 5,0 z" transform="matrix(1, 0, 0, 1, 0, 0)"/><text x="0" y="12.934999752044678" style="font: bold 14px sans-serif" text-anchor="start" fill="#333" transform="matrix(1, 0, 0, 1, 10.761423749153968, 10.761423749153968)">Alpha</text></g><g transform="matrix(1, 0, 0, 1, 86.27284749830794, 0)" data-class-name="Node" data-key="2"><path stroke="none" fill="orange" d="M 5,0 L 52.22284826124739,0 C 54.46142451209342,0 57.22284826124739,2.761423749153968 57.22284826124739,5 L 57.22284826124739,33.769513834367515 C 57.22284826124739,36.008090085213546 54.46142451209342,38.769513834367515 52.22284826124739,38.769513834367515 L 5,38.769513834367515 C 2.761423749153968,38.769513834367515 0,36.008090085213546 0,33.769513834367515 L 0,5 C 0,2.761423749153968 2.761423749153968,0 5,0 z" transform="matrix(1, 0, 0, 1, 0, 0)"/><text x="0" y="12.934999752044678" style="font: bold 14px sans-serif" text-anchor="start" fill="#333" transform="matrix(1, 0, 0, 1, 10.761423749153968, 10.761423749153968)">Beta</text></g><g transform="matrix(1, 0, 0, 1, 0, 70)" data-class-name="Node" data-key="3"><path stroke="none" fill="lightgreen" d="M 5,0 L 76.20618184889388,0 C 78.44475809973991,0 81.20618184889388,2.761423749153968 81.20618184889388,5 L 81.20618184889388,33.769513834367515 C 81.20618184889388,36.008090085213546 78.44475809973991,38.769513834367515 76.20618184889388,38.769513834367515 L 5,38.769513834367515 C 2.761423749153968,38.769513834367515 0,36.008090085213546 0,33.769513834367515 L 0,5 C 0,2.761423749153968 2.761423749153968,0 5,0 z" transform="matrix(1, 0, 0, 1, 0, 0)"/><text x="0" y="12.934999752044678" style="font: bold 14px sans-serif" text-anchor="start" fill="#333" transform="matrix(1, 0, 0, 1, 10.761423749153975, 10.761423749153968)">Gamma</text></g><g transform="matrix(1, 0, 0, 1, 101.20618184889388, 70)" data-class-name="Node" data-key="4"><path stroke="none" fill="pink" d="M 5,0 L 57.95618184889388,0 C 60.19475809973991,0 62.95618184889388,2.761423749153968 62.95618184889388,5 L 62.95618184889388,33.769513834367515 C 62.95618184889388,36.008090085213546 60.19475809973991,38.769513834367515 57.95618184889388,38.769513834367515 L 5,38.769513834367515 C 2.761423749153968,38.769513834367515 0,36.008090085213546 0,33.769513834367515 L 0,5 C 0,2.761423749153968 2.761423749153968,0 5,0 z" transform="matrix(1, 0, 0, 1, 0, 0)"/><text x="0" y="12.934999752044678" style="font: bold 14px sans-serif" text-anchor="start" fill="#333" transform="matrix(1, 0, 0, 1, 10.761423749153968, 10.761423749153968)">Delta</text></g><g transform="matrix(1, 0, 0, 1, 65.77284749830794, 15.384756917183761)" data-class-name="Link" data-from-key="1" data-to-key="2"><path stroke="#0a0a0a" fill="none" stroke-width="1" stroke-linecap="butt" stroke-linejoin="miter" stroke-miterlimit="10" d="M 0,0 L 20,0" transform="matrix(1, 0, 0, 1, 0.5, 4)"/><path stroke="none" fill="#0a0a0a" d="M 0,0 L 8,4 L 0,8 L 2,4 z" transform="matrix(1, 0, 0, 1, 12.5, 0)"/></g><g transform="matrix(1, 0, 0, 1, 33.70942667164803, 38.269513834367515)" data-class-name="Link" data-from-key="1" data-to-key="3"><path stroke="#0a0a0a" fill="none" stroke-width="1" stroke-linecap="butt" stroke-linejoin="miter" stroke-miterlimit="10" d="M 0,0 L 3.331252084590993,31.230486165632485" transform="matrix(1, 0, 0, 1, 1.4947046228569185, 0.5)"/><path stroke="none" fill="#0a0a0a" d="M 0,0 L 8,4 L 0,8 L 2,4 z" transform="matrix(0.10606498853602848, 0.994359199789921, -0.994359199789921, 0.10606498853602848, 7.954873598319368, 23.351352613169002)"/></g><g transform="matrix(1, 0, 0, 1, 96.22837538948238, 36.76951383436752)" data-class-name="Link" data-from-key="2" data-to-key="2"><path stroke="#0a0a0a" fill="none" stroke-width="1" stroke-linecap="butt" stroke-linejoin="miter" stroke-miterlimit="10" d="M 26.589763148096225,0 C 47.589763148096225,36.37306695894643 -16.793826100526772,36.37306695894643 4.206173899473214,0" transform="matrix(1, 0, 0, 1, 3.2579277156645414, 2)"/><path stroke="none" fill="#0a0a0a" d="M 0,0 L 8,4 L 0,8 L 2,4 z" transform="matrix(0.5000000000000001, -0.8660254037844386, 0.8660254037844386, 0.5000000000000001, 0, 6.928203230275509)"/></g><g transform="matrix(1, 0, 0, 1, 80.70618184889386, 85.38475691718375)" data-class-name="Link" data-from-key="3" data-to-key="4"><path stroke="#0a0a0a" fill="none" stroke-width="1" stroke-linecap="butt" stroke-linejoin="miter" stroke-miterlimit="10" d="M 0,0 L 20.000000000000014,0" transform="matrix(1, 0, 0, 1, 0.5, 4)"/><path stroke="none" fill="#0a0a0a" d="M 0,0 L 8,4 L 0,8 L 2,4 z" transform="matrix(1, 0, 0, 1, 12.500000000000014, 0)"/></g><g transform="matrix(1, 0, 0, 1, 58.40289548761083, 35.49748100364031)" data-class-name="Link" data-from-key="4" data-to-key="1"><path stroke="#0a0a0a" fill="none" stroke-width="1" stroke-linecap="butt" stroke-linejoin="miter" stroke-miterlimit="10" d="M 44.864429376823985,31.547743996102184 L 0,0" transform="matrix(1, 0, 0, 1, 2.300826189576978, 3.2720328307272037)"/><path stroke="none" fill="#0a0a0a" d="M 0,0 L 8,4 L 0,8 L 2,4 z" transform="matrix(-0.818008207681801, -0.5752065473942446, 0.5752065473942446, -0.818008207681801, 6.544065661454408, 11.145718040608365)"/></g></g><g transform="matrix(1, 0, 0, 1, 1, 1)"/></g><clipPath id="mainClip461"><rect x="0" y="0" width="167px" height="111px"/></clipPath></svg>